<svg version="1.2" xmlns="http://www.w3.org/2000/svg" viewBox="0 0 1416 257" width="1416" height="257">
	<title>logo-kolmeya</title>
	<style>
		.s0 { fill: #f3aa1f } 
		.s1 { fill: #20f28b } 
		.s2 { fill: #ae20f2 } 
		.s3 { fill: #f2de20 } 
		.s4 { fill: #3b2055 } 
	</style>
	<path id="&lt;Path&gt;" class="s0" d="m187.3 53.7h-96.1c-5.8 0-10.5-4.7-10.5-10.5 0-5.8 4.7-10.4 10.5-10.4h96.1c5.8 0 10.4 4.6 10.4 10.4 0 5.8-4.6 10.5-10.4 10.5z"/>
	<path id="&lt;Path&gt;" class="s0" d="m212 95.1h-80.9c-5.8 0-10.4-4.7-10.4-10.5 0-5.8 4.6-10.4 10.4-10.4h80.9c5.8 0 10.5 4.6 10.5 10.4 0 5.8-4.7 10.5-10.5 10.5z"/>
	<path id="&lt;Path&gt;" class="s1" d="m95.9 95.1h-28.5c-5.8 0-10.5-4.7-10.5-10.5 0-5.8 4.7-10.4 10.5-10.4h28.5c5.8 0 10.5 4.6 10.5 10.4 0 5.8-4.7 10.5-10.5 10.5z"/>
	<path id="&lt;Path&gt;" class="s2" d="m235.8 136.5h-40c-5.8 0-10.4-4.7-10.4-10.5 0-5.8 4.6-10.5 10.4-10.5h40c5.8 0 10.4 4.7 10.4 10.5 0 5.8-4.6 10.5-10.4 10.5z"/>
	<path id="&lt;Path&gt;" class="s0" d="m159.7 136.5h-116.1c-5.8 0-10.4-4.7-10.4-10.5 0-5.8 4.6-10.5 10.4-10.5h116.1c5.8 0 10.4 4.7 10.4 10.5 0 5.8-4.6 10.5-10.4 10.5z"/>
	<path id="&lt;Path&gt;" class="s0" d="m212 177.8h-144.6c-5.8 0-10.5-4.6-10.5-10.4 0-5.8 4.7-10.5 10.5-10.5h144.6c5.8 0 10.5 4.7 10.5 10.5 0 5.8-4.7 10.4-10.5 10.4z"/>
	<path id="&lt;Path&gt;" class="s3" d="m104.5 219.2h-12.4c-5.8 0-10.4-4.6-10.4-10.4 0-5.8 4.6-10.5 10.4-10.5h12.4c5.8 0 10.5 4.7 10.5 10.5 0 5.8-4.7 10.4-10.5 10.4z"/>
	<path id="&lt;Path&gt;" class="s0" d="m188.2 219.2h-49.5c-5.8 0-10.4-4.6-10.4-10.4 0-5.8 4.6-10.5 10.4-10.5h49.5c5.8 0 10.5 4.7 10.5 10.5 0 5.8-4.7 10.4-10.5 10.4z"/>
	<path id="&lt;Path&gt;" class="s4" d="m452.2 215.4h-44.3l-57-69.7-5.2 5.5v64.2h-33.6v-179.3h33.6v57.1c0 1.8 1.5 3.2 3.3 3.2h0.9l1.5-1 54.9-59.7 45.4 0.3-76.1 82.5c-1.1 1.2-1.1 3-0.1 4.3z"/>
	<path id="&lt;Compound Path&gt;" fill-rule="evenodd" class="s4" d="m626 125.4c0 49.9-40.5 90.4-90.4 90.4-49.8 0-90.3-40.5-90.3-90.4 0-49.8 40.5-90.3 90.3-90.3 49.9 0 90.4 40.5 90.4 90.3zm-33.7 0c0-31.2-25.4-56.7-56.7-56.7-31.3 0-56.7 25.4-56.7 56.7 0 31.2 25.4 56.7 56.7 56.7 31.3 0 56.7-25.5 56.7-56.7z"/>
	<path id="&lt;Path&gt;" class="s4" d="m754.8 181.7v33.6h-106.5v-179.9h33.6v143c0 1.8 1.5 3.3 3.3 3.3h69.6z"/>
	<path id="&lt;Path&gt;" class="s4" d="m936 36.5v178.5h-33.6v-80.3l-2.8-0.6h-1.5l-1.1 1.7-33.3 78.9h-19.7l-33.9-80.5-1.9-0.4h-2.2l-0.6 2.8v78.1h-33.7v-178.2h36l44.1 111.9 2 0.3h1.6l1-1.7 43.8-110.5z"/>
	<path id="&lt;Path&gt;" class="s4" d="m1000 72.5v33.2c0 1.8 1.5 3.3 3.3 3.3h55.9v33.6h-55.9c-1.8 0-3.3 1.5-3.3 3.3v32.3c0 1.8 1.5 3.3 3.3 3.3h69.5v33.6h-106.4v-179.6h106.4v33.7h-69.5c-1.7 0-3.3 1.5-3.3 3.3z"/>
	<path id="&lt;Path&gt;" class="s4" d="m1234.2 36.1l-59.7 100.9-0.2 1.2v76.5h-33.6v-78.2l-0.5-1.1-58.5-99.3h39.6l34.8 60 1.7 0.3h1.2l1.2-1.3 35.1-59.6z"/>
	<path id="&lt;Compound Path&gt;" fill-rule="evenodd" class="s4" d="m1386.8 214.8h-36.3l-13.8-34c-0.5-1.2-1.7-2-3-2h-69.4c-1.2 0-2.4 0.8-2.9 1.9l-15.9 34.1h-37.2l83.3-178.7h22.6zm-66.5-74.2l-16-39.2c-0.5-1.2-1.7-2-3.1-2-1.2 0-2.3 0.8-2.9 1.9l-18.8 40.3 0.6 2.1c0.6 1 1.6 1.6 2.8 1.6h35.4l1.5-1.5c0.8-1 0.9-2.2 0.5-3.2z"/>
</svg>